<?xml version="1.0" standalone="no"?>
<!DOCTYPE svg PUBLIC "-//W3C//DTD SVG 20010904//EN"
 "http://www.w3.org/TR/2001/REC-SVG-20010904/DTD/svg10.dtd">
<svg version="1.0" xmlns="http://www.w3.org/2000/svg"
 width="512.000000pt" height="512.000000pt" viewBox="0 0 512.000000 512.000000"
 preserveAspectRatio="xMidYMid meet">

<g transform="translate(0.000000,512.000000) scale(0.100000,-0.100000)"
fill="#000000" stroke="none">
<path d="M1340 4904 c-459 -36 -870 -299 -1124 -721 -301 -502 -284 -1152 50
-1823 281 -564 748 -1091 1409 -1589 330 -249 818 -554 885 -554 66 0 554 304
875 546 666 501 1137 1032 1419 1597 264 530 333 1057 195 1494 -151 484 -533
867 -994 1001 -236 68 -505 64 -755 -11 -254 -77 -544 -276 -690 -473 -25 -33
-47 -60 -50 -60 -3 0 -25 27 -50 60 -146 197 -436 396 -690 473 -143 43 -354
69 -480 60z m290 -190 c102 -18 236 -62 322 -105 185 -92 376 -261 483 -424
69 -107 78 -115 125 -115 47 0 56 8 125 115 106 163 299 333 480 423 272 135
606 162 885 72 105 -34 258 -115 351 -184 362 -273 569 -716 545 -1166 -23
-421 -158 -803 -431 -1220 -316 -483 -853 -997 -1490 -1426 -158 -107 -449
-284 -465 -284 -16 0 -307 177 -465 284 -733 493 -1318 1086 -1621 1641 -267
489 -364 1002 -263 1399 98 388 358 720 694 886 240 118 461 150 725 104z"/>
</g>
</svg>
