<svg xmlns="http://www.w3.org/2000/svg" width="512" height="512" viewBox="0 0 512 512">
<g>
<path d="M 236.00 511.01 C155.80,501.73 92.25,443.63 75.25,364.06 C72.76,352.37 72.57,349.80 72.57,327.00 C72.58,300.15 73.53,292.02 79.07,271.13 C85.75,245.98 96.76,223.46 113.79,200.13 C124.58,185.35 132.13,176.49 156.50,150.00 C179.11,125.43 191.35,110.79 199.38,98.72 C210.96,81.32 218.65,61.97 221.04,44.23 C222.24,35.33 221.93,17.21 220.38,5.77 C219.85,1.83 220.03,0.92 221.48,0.37 C223.65,-0.46 226.94,1.42 238.86,10.31 C262.65,28.08 281.92,50.62 293.93,74.71 C305.10,97.13 310.23,118.61 310.36,143.50 C310.44,157.96 310.11,161.14 307.01,176.50 C304.21,190.35 303.56,195.81 303.53,206.00 C303.50,217.66 303.69,218.88 306.26,224.11 C307.78,227.20 311.74,232.70 315.07,236.33 C322.20,244.12 330.23,248.52 340.37,250.20 C358.14,253.14 376.77,243.63 385.23,227.27 C389.70,218.64 390.17,216.74 390.90,204.00 C391.49,193.64 391.53,193.50 393.99,193.50 C396.04,193.50 397.79,195.46 404.03,204.73 C427.46,239.53 440.00,281.28 440.00,324.49 C440.00,346.87 437.57,362.37 430.89,382.50 C420.16,414.84 401.94,442.56 376.50,465.26 C350.22,488.70 319.19,503.65 284.50,509.57 C273.72,511.41 246.46,512.22 236.00,511.01 ZM 277.82 470.03 C299.48,464.73 320.05,450.22 332.58,431.42 C343.53,414.97 348.00,400.09 347.99,380.12 C347.98,363.58 343.68,344.96 339.49,343.36 C338.67,343.04 335.41,344.78 332.01,347.33 C316.99,358.63 298.71,362.61 281.05,358.45 C260.21,353.54 243.32,336.47 237.57,314.50 C234.96,304.54 233.71,285.07 234.67,269.08 C235.55,254.36 235.13,252.01 231.68,252.00 C231.03,252.00 225.54,257.06 219.48,263.25 C189.46,293.89 174.63,317.50 167.40,346.17 C165.28,354.59 164.70,359.69 164.27,373.74 C163.81,389.00 163.99,392.04 165.89,400.24 C169.92,417.60 177.01,430.70 189.50,443.87 C203.85,459.01 222.38,468.83 242.50,471.96 C251.20,473.31 268.21,472.39 277.82,470.03 Z" fill="rgba(0,0,0,1)"/>
</g>
</svg>