<svg xmlns="http://www.w3.org/2000/svg" width="512" height="512" viewBox="0 0 512 512">
<g>
<path d="M 108.00 491.72 C98.90,488.61 92.70,484.72 86.04,477.96 C79.66,471.48 73.85,460.76 72.09,452.20 C71.37,448.68 71.00,424.53 71.00,380.40 C71.00,324.71 71.23,313.46 72.43,311.20 C73.21,309.72 113.02,269.35 160.89,221.50 C255.54,126.89 251.95,130.09 260.04,133.03 C263.26,134.20 281.70,152.12 351.11,221.50 C398.98,269.35 438.79,309.72 439.57,311.20 C440.77,313.46 441.00,324.71 441.00,380.40 C441.00,424.53 440.63,448.68 439.91,452.20 C437.04,466.11 425.87,481.08 413.43,487.67 C401.52,493.98 401.28,494.00 350.32,494.00 L 304.00 494.00 L 304.00 429.00 L 304.00 364.00 L 256.00 364.00 L 208.00 364.00 L 208.00 429.00 L 208.00 494.00 L 161.25 493.97 C115.58,493.95 114.35,493.90 108.00,491.72 ZM 19.27 281.41 C13.58,279.31 6.02,272.32 3.01,266.37 C1.09,262.59 0.53,259.94 0.52,254.50 C0.48,240.33 -6.85,248.63 103.87,137.68 C158.67,82.79 206.20,35.83 209.49,33.33 C222.65,23.35 235.08,19.01 252.50,18.30 C265.82,17.75 274.48,19.10 284.96,23.33 C297.87,28.54 301.68,31.69 334.65,64.34 L 366.81 96.19 L 367.15 77.34 C367.47,60.14 367.70,58.10 369.78,53.87 C375.09,43.10 384.73,37.02 396.50,37.02 C410.11,37.02 421.14,45.35 424.56,58.19 C425.68,62.39 425.98,73.07 425.99,109.46 L 426.00 155.42 L 466.86 196.46 C512.44,242.24 511.52,241.04 511.48,254.50 C511.46,263.22 508.62,269.36 501.73,275.55 C492.81,283.58 480.16,285.20 469.48,279.70 C465.69,277.75 440.99,253.59 366.00,178.50 C310.54,122.97 265.88,79.02 263.79,77.93 C259.06,75.47 252.94,75.47 248.21,77.93 C246.12,79.02 201.46,122.97 146.00,178.50 C71.09,253.51 46.30,277.76 42.50,279.72 C36.22,282.98 25.62,283.74 19.27,281.41 Z" fill="rgba(0,0,0,1)"/>
</g>
</svg>