<svg xmlns="http://www.w3.org/2000/svg" width="512" height="512" viewBox="0 0 512 512">
<g>
<path d="M 465.05 507.81 C461.08,507.36 456.08,505.85 452.05,503.90 C446.13,501.03 439.66,494.91 385.00,440.46 L 324.50 380.19 L 318.00 384.64 C309.86,390.21 288.22,400.86 277.00,404.82 C223.24,423.82 165.70,420.61 116.05,395.87 C65.90,370.88 29.03,329.02 11.10,276.74 C-23.29,176.42 24.43,66.78 122.00,21.96 C149.03,9.54 174.79,3.99 205.76,3.92 C228.57,3.87 243.67,5.85 264.26,11.59 C292.86,19.57 324.55,37.45 346.48,57.97 C408.15,115.67 429.24,199.38 402.01,278.34 C398.27,289.20 390.10,306.97 385.16,315.00 C383.98,316.92 383.01,319.09 383.00,319.81 C383.00,320.53 410.12,348.25 443.28,381.40 C509.21,447.34 508.78,446.84 511.17,460.77 C513.40,473.80 509.37,486.29 499.79,496.02 C490.68,505.28 478.66,509.36 465.05,507.81 ZM 224.68 348.93 C256.33,344.62 282.34,331.72 305.08,309.05 C329.77,284.43 343.17,255.77 345.95,221.60 C351.25,156.55 311.20,96.96 248.86,77.14 C233.30,72.20 221.15,70.68 202.00,71.31 C175.44,72.17 156.37,77.69 134.50,90.84 C127.08,95.31 111.90,107.36 106.38,113.17 C70.07,151.40 57.99,205.30 74.60,255.00 C90.97,303.99 134.36,340.44 185.84,348.46 C196.57,350.13 214.31,350.35 224.68,348.93 Z" fill="rgba(0,0,0,1)"/>
</g>
</svg>