<svg width="20" height="20" viewBox="0 0 20 20" fill="none" xmlns="http://www.w3.org/2000/svg">
<path d="M10 0.5C15.2239 0.5 19.5 4.77614 19.5 10C19.5 15.2239 15.2239 19.5 10 19.5C4.77614 19.5 0.5 15.2239 0.5 10C0.5 4.77614 4.77614 0.5 10 0.5ZM10 1.5C5.31386 1.5 1.5 5.31386 1.5 10C1.5 14.6861 5.31386 18.5 10 18.5C14.6861 18.5 18.5 14.6861 18.5 10C18.5 5.31386 14.6861 1.5 10 1.5ZM15.2939 6.99805L8 14.293L4.70703 11L5.41016 10.2959L7.64746 12.5244L8.00098 12.876L8.35352 12.5234L14.5879 6.28809L15.2939 6.99805Z" fill="#0B0E19" stroke="black"/>
</svg>
